<svg xmlns="http://www.w3.org/2000/svg" viewBox="0 0 512 512" xml:space="preserve"><path d="M295.5 319.5a128 128 0 0 1 1.2 21.7v81h-22.3v-80q0-13.8-2.6-20.5a22 22 0 0 0-9.3-10.8q-6.6-4-15.5-4-14.2 0-24.6 9T212 350.3v72h-22.3V290.4h20v18.7a47 47 0 0 1 42-21.7 55 55 0 0 1 21.9 4.3 34 34 0 0 1 21.9 27.7m216 103.6q-9.5 2-16.9 2-12.1 0-18.8-4-6.7-3.7-9.5-10a80 80 0 0 1-2.7-26.4v-79.5h-48.5l.4.3q16.7 18 16.7 50.6v6h-98.3q1.2 21.7 12.3 33.2a37 37 0 0 0 27.5 11.6q12.3 0 21-6.5a43 43 0 0 0 13.7-20.6l23 2.9q-5.3 20.3-20.1 31.4c-14.8 11-22.4 11.1-37.7 11.1q-29 0-45.9-17.8-17-17.7-16.9-50 0-33.1 17.1-51.5a58 58 0 0 1 44.4-18.4q3.3 0 6.5.3h84.8v-28.6h22.2v28.6h22.5v17.4h-22.5V386a39 39 0 0 0 1.2 12.2q1.1 2.8 3.8 4.4 2.7 1.5 7.7 1.6 3.7 0 9.8-.9zm-102.8-79.4q-1.5-16.5-8.5-25a34 34 0 0 0-27.6-12.8 36 36 0 0 0-25.9 10.3q-10.4 10.3-11.6 27.5zm-250.8 51.7q-6 0-10.3 4.4a15 15 0 0 0-4.2 10.5q0 6 4.2 10.5t10.3 4.4q6.2 0 10.5-4.4 4.4-4.4 4.4-10.5t-4.4-10.5-10.5-4.4M301 267.2q-17.3 7.6-43.7 7.6-46.5 0-64.3-17.8l-.1-.2 5.6 15h-58.9l-9-30h-64l-8.8 30H.5l68.3-182h61.3l45.7 121.6 50.5-3.2a41 41 0 0 0 7 19.9q8.6 11 24.8 11 12 0 18.6-5.6a17 17 0 0 0 6.5-13.1q0-7.1-6.2-12.7t-28.8-10.5q-37-8.4-52.7-22.1a44 44 0 0 1-15.9-35.1q0-14 8.1-26.5A54 54 0 0 1 212.2 94a114 114 0 0 1 44.7-7.1q34.9 0 53.1 13t21.8 41.2l-53 3q-2-12.1-8.8-17.8a29 29 0 0 0-18.7-5.6q-9.7 0-14.8 4.2-5 4.1-5 10.1 0 4.3 4.2 7.8a46 46 0 0 0 18.8 6.7 236 236 0 0 1 52.8 16 56 56 0 0 1 23.2 20.2q3.7 6.2 5.5 13.1V90h93.4q30.6 0 45.7 14.5 15.3 14.5 15.2 41.3a56 56 0 0 1-16.5 43q-16.6 15.6-50.6 15.5h-30.7v67.5H336V227a61 61 0 0 1-35 40.3m91.5-99.8h13.7q16.3 0 22.9-5.6 6.5-5.7 6.5-14.5 0-8.5-5.7-14.5t-21.4-6h-16zm-273.6 35L98.8 137l-19.9 65.4z"/></svg>