<svg viewBox="0 0 24 24" fill="none" xmlns="http://www.w3.org/2000/svg"><path fill-rule="evenodd" clip-rule="evenodd" d="M5 2a2.4 2.4 0 0 0-2.4 2.5c0 1.2 0 2.9-.4 4.2q-.5 2-2.2 2.3v1.2c1.1 0 1.8 1 2.2 2.2q.6 2.2.4 4.2c0 1.3 1 2.5 2.4 2.5h14c1.4 0 2.4-1.2 2.4-2.5q-.1-2 .4-4.2.5-2 2.2-2.2V11q-1.6-.3-2.2-2.3c-.4-1.3-.5-3-.4-4.2S20.4 2 19 2zm11.3 11.8q-.1 2.8-3.6 2.8H9a.4.4 0 0 1-.4-.4V7a.4.4 0 0 1 .4-.4h3.8q2.8.1 3 2.5c0 1-.8 2-1.8 2.2q2.3.4 2.4 2.6m-4-6h-2.1v3H12q2.1 0 2.1-1.6 0-1.5-1.8-1.4M10.2 12v3.4h2.2q2.2 0 2.2-1.7T12.3 12z" fill="#000"/></svg>