<svg xmlns="http://www.w3.org/2000/svg" data-name="Layer 1" viewBox="0 0 48 48"><path d="M43 11 26 1a4 4 0 0 0-4 0L5 11a4 4 0 0 0-1.8 3.2v19.6A4 4 0 0 0 5 37.1l17 9.8a4 4 0 0 0 3.8 0l17-9.8a4 4 0 0 0 1.9-3.3V14.2a4 4 0 0 0-1.9-3.3M23.6 37.1c-8.5 0-13-5.5-13-13s5-13.4 13.4-13.4c9.2 0 11.8 6 12 9h-7.5c-.4-2-1.7-3.5-4.7-3.5q-5.3.2-5.4 7.7.2 7.9 5.4 7.8a5 5 0 0 0 4.7-3.3H36c-1 4.1-4.2 8.6-12.4 8.6M41 23h-1l-.3 1.2h.8v1h-1l-.5 1.9h-1l.5-1.8h-1.1l-.5 1.7h-1l.4-1.8h-.7v-1h1L37 23h-.8v-1h1l.5-1.6h1l-.4 1.6h1.1l.4-1.6h1l-.4 1.6h.7Z"/><path d="M37.7 24.3h1.1l.3-1.2h-1z"/></svg>