<svg xmlns="http://www.w3.org/2000/svg" preserveAspectRatio="xMidYMid" viewBox="0 0 256 361"><path fill="#264DE4" d="M127.8 360 23.7 331.3.4 70.8h255.2L232.3 331z"/><path fill="#2965F1" d="m212.4 314.5 19.9-222.4H128V338z"/><path fill="#EBEBEB" d="m53.7 188.6 2.8 32H128v-32zM47.9 124l3 32H128v-32zM128 271.6 92.3 262 90 236.5H58l4.4 50.2 65.5 18.1h.1z"/><path d="M60.5 0h38.7v16.2H76.7v16.2h22.5v16.1H60.5zm46.4 0h38.7v14H123v3h22.5v32.3h-38.7V34.5h22.5v-2.9H107zm46.4 0H192v14h-22.5v3H192v32.3h-38.7V34.5h22.5v-2.9h-22.5z"/><path fill="#FFF" d="M202.1 188.6 208 124h-80v32h45l-3 32.6h-42v32h39.3l-3.7 41.4-35.6 9.6v33.2l65.5-18.1.4-5.4 7.5-84z"/></svg>