<svg xmlns="http://www.w3.org/2000/svg" viewBox="0 0 128 128"><path fill="#019BC6" d="M86 118.4v-.9l-.5-.7-1.6-1.7-5.9-6 4.6-4.7 2.5-2.7q.8-.7.9-1.8v-.4q0-1.3-1.3-1.6l.2.1h-.7c-.6 0-2.3 1.6-2.7 2.1-1.5 1.5-2.5 2.9-4.5 4.4V92.6q0-1.6-1.7-1.6H75q-1.8 0-2 1.6v25.9q.2 1.6 2 1.5h.3q1.7 0 1.7-1.5v-4.6l3 2.9 2.6 2.3q.8.8 1.8.9h.3q1.3 0 1.5-1.3l-.2.1zM125.1 98h-.4a10 10 0 0 0-6 1.9q-4.6 3.3-4.7 8.9v9.8q0 1.5 1.5 1.4h.3c1.1 0 2.2-.4 2.2-1.4v-9.2q-.2-3 1.9-5.4c1.2-1.2 2.7-2.2 4.4-2.2 1.3 0 2.8-.3 2.8-1.9q-.2-1.9-2-1.9m-15.4 5a11 11 0 0 0-4.5-4.1 11 11 0 0 0-10.6.1l-.5.3q-2.1 1.2-3.5 3.1a11 11 0 0 0-.6 12.1l.2.4q1.5 2.6 4 4a11 11 0 0 0 11.1.2l.3-.2q1.5-1 .7-2.6-.4-.6-1-.9h-.2c-.7-.1-2.6.7-3.3 1q-2.2.4-4.4-.2l7.6-6.6 3.5-3c1-.8 2-1.9 1.2-3.3zm-6.9 3.6-8.5 7.3-.7-1q-1-1.5-1-3.4-.2-4.6 3.7-7 3-1.8 6.4-.6 1.8.6 3.1 2.1zM22 91h-.3Q20 91 20 92.5v8.1q-3-2.6-7.2-2.5H12q-2.8-.1-5.4 1.3a10 10 0 0 0-5.6 9.4v.8q0 2.8 1.5 5.2 3.3 5.4 9.5 5.4h.8q3 0 5.5-1.2 5.6-3.1 5.7-9.3v-17q-.2-1.8-2-1.7m-3.1 21.8a7.4 7.4 0 0 1-10 3 7 7 0 0 1-4.1-6.7q0-1.6.7-3.1 2.1-4.4 6.9-4.5 2.4 0 4.2 1.4a7 7 0 0 1 3.3 6.1q.1 2-1 3.8M37.6 98H37a10 10 0 0 0-5.4 1.3 10 10 0 0 0-5.6 9.4v.8q0 2.8 1.5 5.2 3.2 5.4 9.6 5.4h.8q2.9 0 5.5-1.2 5.6-3.2 5.7-9.3v-.8a10 10 0 0 0-1.4-4.8 11 11 0 0 0-10.1-6m6.4 14.8q-2.2 3.8-6.5 3.9-2 0-3.8-1-3.8-2.2-3.9-6.5 0-1.6.7-3.1 2.1-4.4 6.9-4.5a7 7 0 0 1 4 1.2 7 7 0 0 1 3.5 6.3q.2 1.8-.9 3.7m24.5-13.4a10 10 0 0 0-5.6-1.5H62a10 10 0 0 0-5.4 1.3 10 10 0 0 0-5.6 9.3v.8q0 1.5.4 2.9c1.6 5.5 5.9 8.6 11.7 8.2 1.6-.1 5.9-.6 5.9-3v-.4a2 2 0 0 0-1.5-1.9l-.1-.2h-.7l-.2.3c-.9.4-2.4 1.2-3.4 1.2q-1.9.1-3.6-.6-4.5-2.1-4.6-6.9 0-1.6.7-3.1c1.4-2.8 3.7-4.6 6.9-4.5.6 0 1.7.3 2.3.6s1.8 1 2.4 1h.2l.1-.2q1.5-.4 1.6-1.8v-.4q0-.6-.4-1zM5.8 68.2l.1.2c7.9 13.4 21.7 19 36.8 19 29.2 0 53.3-13.1 64.3-40.6 7.4.4 15-1.8 18.6-8.9l.9-1.8-1.8-1c-4.3-2.5-10-2.8-14.8-1.4-.6-5.2-4-9.7-8-12.9l-1.6-1.3-1.3 1.6c-2.7 3.1-3.5 8.3-3.1 12.3q.4 4.5 3 8.3c-1.4.8-2.9 1.9-4.3 2.4-2.8 1-5.9 2-8.9 2H79V32H66V7H51v12H26v13H13v14H1.8l-.2 1.5q-.9 9.6 3 18.5zM66 35h11v11H66zM53 9h11v11H53zm0 13h11v11H53zm0 13h11v11H53zM40 22h11v11H40zm0 13h11v11H40zm1.1 31.2c0 1.7-1.4 3.1-3.1 3.1a3 3 0 0 1-3.1-3.1c0-1.7 1.4-3.1 3.1-3.1 1.7.1 3.1 1.4 3.1 3.1M28 22h10v11H28zm0 13h10v11H28zm-13 0h11v11H15zm2.4 38 4.7-.1a46 46 0 0 0 10.1-1.5 27 27 0 0 0 14 13.8l-3.5.1a40 40 0 0 1-31.3-12.4zM38 68.4c1.2 0 2.2-1 2.2-2.2l-.2-.8q-.2.5-.8.5a1 1 0 0 1-.9-.9q0-.5.4-.8L38 64c-1.2 0-2.2 1-2.2 2.2.1 1.2 1 2.2 2.2 2.2"/></svg>