<svg xmlns="http://www.w3.org/2000/svg" viewBox="0 0 128 128"><g fill="#181616"><path fill-rule="evenodd" d="M64 1.5a42.5 42.5 0 0 0-13.5 83c2.2.3 3-1 3-2.1l-.1-8c-11.8 2.6-14.3-5-14.3-5-2-4.9-4.8-6.2-4.8-6.2-3.8-2.6.3-2.6.3-2.6 4.3.3 6.6 4.4 6.6 4.4 3.7 6.5 10 4.6 12.3 3.5a9 9 0 0 1 2.7-5.6C46.8 61.8 37 58 37 41.9q.1-7 4.3-11.5c-.4-1-1.9-5.4.4-11.2 0 0 3.6-1.2 11.7 4.3a41 41 0 0 1 21.4 0c8-5.5 11.6-4.3 11.6-4.3 2.4 5.8.9 10.1.5 11.2Q91 35 91 41.8c0 16.4-10 20-19.4 21 1.5 1.3 2.9 4 2.9 7.9v11.7c0 1.1.7 2.4 2.9 2A42.5 42.5 0 0 0 64 1.5" clip-rule="evenodd"/><path d="M37.6 62.6q-.2.4-.8.1-.4-.2-.3-.6t.7-.1q.5.1.4.6m1.7 1.9q-.4.3-.9-.2t-.1-.9q.4-.1.9.2.4.5 0 1m1.6 2.5q-.4.3-.9-.4-.3-.7 0-1 .5-.2 1 .3.3.7 0 1m2.4 2.3q-.5.4-1.1-.1-.6-.7-.3-1.1.5-.4 1.1.1.6.7.3 1.1m3.1 1.4q-.1.5-1 .4-.8-.3-.7-1 .2-.5 1-.3t.7 1m3.5.3q0 .5-.9.6t-1-.6q.1-.6 1-.7t1 .7m3.3-.6q0 .6-.8.8-.9 0-1-.5t.7-.8q.9 0 1 .5m0 0"/></g><path fill="#100E0F" d="M24.9 108.3H14.2l-.5.5v5.2l.5.5h4.1v6.5s-1 .4-3.5.4c-3 0-7.3-1.2-7.3-10.6s4.4-10.6 8.6-10.6c3.6 0 5.2.7 6.2 1q.5-.1.6-.5l1.2-5-.2-.5c-.4-.3-2.9-1.6-9.1-1.6-7.1 0-14.5 3-14.5 17.6S8.7 128 15.8 128c5.8 0 9.4-2.5 9.4-2.5l.2-.4v-16.3zm54.6-13.5h-6l-.5.5V107h-9.4V95.3l-.5-.5h-6l-.5.5v31.5q0 .5.5.5h6l.5-.5v-13.4H73v13.4q0 .5.5.5h6l.5-.5V95.3q0-.5-.5-.5m-47.2.7a4 4 0 0 0-3.8 4 4 4 0 0 0 3.8 3.9 4 4 0 0 0 4-4 4 4 0 0 0-4-3.9m3 9.6h-6q-.5 0-.5.6v20.8q.1 1 .8.8h5.5q.7 0 .7-.8v-20.9zm67.6 0h-6a.5.5 0 0 0-.5.6V121s-1.5 1.2-3.6 1.2-2.8-1-2.8-3.1v-13.5l-.5-.5h-6l-.5.5v14.5c0 6.3 3.5 7.8 8.3 7.8 4 0 7-2.2 7-2.2l.3 1.3.4.3h4l.4-.6v-21.1zm16.3-.6c-3.4 0-5.7 1.5-5.7 1.5V95.3l-.5-.5h-6l-.5.5v31.5l.5.5h4.2q.3 0 .4-.2l.3-1.5s2.5 2.4 7.1 2.4c5.5 0 8.7-2.8 8.7-12.5s-5-11-8.5-11m-2.3 17.7c-2 0-3.5-1-3.5-1v-10s1.4-.8 3-1c2.2-.1 4.3.5 4.3 5.6 0 5.5-1 6.5-3.8 6.4m-63.7 0h-1.6c-2.3 0-3-1-3-2.3v-9H53l.5-.4v-4.9l-.5-.5h-4.5v-6q0-.3-.4-.3H42q-.3 0-.3.4v6.1l-3.3.8-.4.5v3.9l.5.5h3.2v9.3c0 7 4.8 7.6 8.1 7.6 1.5 0 3.3-.5 3.6-.6q.3 0 .3-.4v-4.3l-.5-.5"/></svg>