<svg xmlns="http://www.w3.org/2000/svg" viewBox="0 0 128 128"><path fill="#0074BD" d="M52.6 67.8s-3.3 2 2.3 2.6c6.8.8 10.3.6 17.8-.8 0 0 2 1.3 4.8 2.3-16.9 7.2-38.1-.4-25-4m-2-9.4s-3.8 2.7 1.9 3.3c7.2.8 13 .8 23-1 0 0 1.3 1.3 3.5 2-20.4 6-43 .5-28.5-4.3"/><path fill="#EA2D2E" d="M67.9 42.4c4.1 4.8-1.1 9.1-1.1 9.1s10.5-5.4 5.7-12.2c-4.5-6.4-8-9.5 10.7-20.4 0 0-29.4 7.3-15.3 23.5"/><path fill="#0074BD" d="M90.1 74.8s2.5 2-2.6 3.5c-9.8 3-40.5 3.9-49 .2-3-1.4 2.7-3.2 4.5-3.6l3-.4c-3.5-2.4-22.1 4.8-9.5 6.8C70.8 87 99 78.8 90 74.8M54 48.6s-15.6 3.8-5.5 5.1c4.3.6 12.8.4 20.7-.2 6.5-.6 13-1.7 13-1.7s-2.3 1-4 2c-15.8 4.3-46.5 2.3-37.7-2 7.5-3.6 13.6-3.2 13.6-3.2m28.1 15.7C98.3 56 90.9 48 85.7 49q-2 .4-1.9.5c.1 0 .5-.8 1.4-1.1 10.3-3.6 18.2 10.7-3.3 16.3z"/><path fill="#EA2D2E" d="M72.5 1.3s9 9-8.5 22.7c-14 11-3.2 17.3 0 24.5-8.2-7.4-14.1-13.8-10.1-19.9 5.9-8.8 22.2-13 18.6-27.3"/><path fill="#0074BD" d="M55.7 87c15.5 1 39.3-.5 39.9-7.8 0 0-1.1 2.7-12.8 5a127 127 0 0 1-39.2.5s2 1.7 12.1 2.3"/><path fill="#EA2D2E" d="M94.9 100.2h-.5v-.3h1.3v.3h-.5v1.3h-.3zm2.5 0-.5 1.3h-.2l-.5-1.3v1.3H96v-1.6h.5l.4 1.1.4-1h.5v1.5h-.3zM53.2 115a7 7 0 0 1-4.4 2q-3-.1-3-3c0-2.1 1.1-3.6 5.7-3.6h1.7zm4 4.6v-14c0-3.7-2-6-7-6q-4.3 0-7.4 1.6l.6 2.5q2.6-1 5.7-1.2 4.2 0 4.1 3.5v1.8h-1.4c-7 0-10 2.7-10 6.7q0 5.4 5.9 5.5a9 9 0 0 0 6-2.6l.4 2.2zm13.5 0h-5l-6-19.7H64l3.8 12 .8 3.7a76 76 0 0 0 4-15.7h4.2a80 80 0 0 1-6.1 19.7M90 115a7 7 0 0 1-4.4 2q-3-.1-3-3c0-2.1 1-3.6 5.7-3.6H90zm4 4.6v-14c0-3.7-2-6-7-6q-4.4 0-7.5 1.6l.6 2.5q2.7-1 5.8-1.2 4.2 0 4 3.5v1.8h-1.3c-7 0-10 2.7-10 6.7q0 5.4 5.8 5.5a9 9 0 0 0 6.1-2.6l.4 2.2zm-56.7 3.3q-1.8 2.6-5 3.8l-2-2.4q2.4-1.3 3.5-3.2c.5-1 .7-2.5.7-5.7V92.9h4.3V115c0 4.3-.3 6.1-1.5 7.8"/></svg>