<svg viewBox="0 0 32 32" fill="none" xmlns="http://www.w3.org/2000/svg"><path fill-rule="evenodd" clip-rule="evenodd" d="M13 2a4 4 0 0 0-4 3.9v2.6h7v.8H6A4 4 0 0 0 2 13v6a4 4 0 0 0 4 3.8h2.3v-3.2a4 4 0 0 1 4-3.9h7.3c1.9 0 3.4-1.4 3.4-3.2V5.9A4 4 0 0 0 19 2zm-.9 4.7q1.3-.1 1.4-1.3-.1-1.2-1.4-1.3-1.3.1-1.4 1.3.1 1.2 1.4 1.3" fill="url(#a)"/><path fill-rule="evenodd" clip-rule="evenodd" d="M19 30a4 4 0 0 0 4-3.9v-2.6h-7v-.8h10a4 4 0 0 0 4-3.8V13a4 4 0 0 0-4-3.8h-2.3v3.2a4 4 0 0 1-4 3.9h-7.3A3.3 3.3 0 0 0 9 19.6v6.5a4 4 0 0 0 4 3.9zm.9-4.7q-1.3.1-1.4 1.3.1 1.2 1.4 1.3 1.3-.1 1.4-1.3-.1-1.2-1.4-1.3" fill="url(#b)"/><defs><linearGradient id="a" x1="12.5" y1="2" x2="12.5" y2="22.7" gradientUnits="userSpaceOnUse"><stop stop-color="#327EBD"/><stop offset="1" stop-color="#1565A7"/></linearGradient><linearGradient id="b" x1="19.5" y1="9.3" x2="19.5" y2="30" gradientUnits="userSpaceOnUse"><stop stop-color="#FFDA4B"/><stop offset="1" stop-color="#F9C600"/></linearGradient></defs></svg>