<svg xmlns="http://www.w3.org/2000/svg" viewBox="0 0 128 128"><g fill="#61DAFB"><circle cx="64" cy="47.5" r="9.3"/><path d="M64 81.7C71.3 88.8 78.5 93 84.3 93a10 10 0 0 0 5.2-1.3c5.2-3 7.1-10.5 5.3-21.2l-1.2-5.8 5.6-1.8c10.1-3.9 15.7-9.3 15.7-15.2 0-6-5.6-11.4-15.7-15.2q-2.7-1-5.6-1.8l1.2-5.8c1.7-10.9-.2-18.5-5.4-21.5a10 10 0 0 0-5.2-1.3c-5.7 0-13 4.2-20.3 11.3C56.7 6.3 49.5 2.1 43.7 2.1a10 10 0 0 0-5.2 1.3c-5.2 3-7.1 10.5-5.3 21.2l1.2 5.8-5.6 1.8c-10.1 3.9-15.7 9.3-15.7 15.2 0 6 5.6 11.4 15.7 15.2q2.6 1 5.6 1.8l-1.2 5.8c-1.7 10.7.2 18.3 5.3 21.2a10 10 0 0 0 5.2 1.3c5.8.2 13-4 20.3-11m-5.6-13.5 5.6.1 5.6-.1a95 95 0 0 1-5.6 6.7 95 95 0 0 1-5.6-6.7M46 57.9q1.4 2.5 3 4.9-4.6-.6-8.8-1.5 1.3-4 3.1-8.3 1.2 2.4 2.7 4.9m-5.8-24.1q4.2-.9 8.8-1.5l-3 4.9q-1.5 2.5-2.7 5a67 67 0 0 1-3.1-8.4m5.5 13.7a106 106 0 0 1 9.2-15.9 136 136 0 0 1 18.2 0 111 111 0 0 1 9.2 15.9 106 106 0 0 1-9.2 15.9 136 136 0 0 1-18.2 0 111 111 0 0 1-9.2-15.9m39.1-5.4-2.7-5q-1.4-2.5-3-4.9 4.6.6 8.8 1.5a95 95 0 0 1-3.1 8.4m0 10.8q1.8 4.2 3.1 8.3-4.2.9-8.8 1.5l3-4.9zm2.3 34.7q-1.2.7-2.9.7c-4.9 0-11-4-17-10q4.3-4.6 8.5-10.5 7-.6 13.4-2.1.7 2.7 1.1 5.4c1.4 8.5.3 14.6-3.1 16.5m5.2-52.7c11.2 3.2 17.9 8.1 17.9 12.6 0 3.9-4.6 7.8-12.7 10.9l-5.2 1.7q-2-6.1-4.9-12.6 3-6.4 4.9-12.6m-8-28.2q1.6 0 2.9.7c3.3 1.9 4.5 7.9 3.1 16.5l-1.1 5.4q-6.3-1.4-13.4-2.1a92 92 0 0 0-8.5-10.5c6-5.9 12.1-10 17-10M69.6 26.8l-5.6-.1-5.6.1q2.7-3.6 5.6-6.7zM40.9 7.4q1.2-.7 2.9-.7c4.9 0 11 4 17 10q-4.3 4.7-8.5 10.5-7 .6-13.4 2.1-.7-2.7-1.1-5.4c-1.4-8.5-.3-14.5 3.1-16.5m-5.2 52.7C24.5 56.9 17.8 52 17.8 47.5c0-3.9 4.6-7.8 12.7-10.9l5.2-1.7q2 6.2 4.9 12.6-3 6.5-4.9 12.6m2.1 11 1.1-5.4q6.3 1.3 13.4 2.1 4.1 5.9 8.5 10.5c-6 5.9-12.1 10-17 10q-1.6 0-2.9-.7c-3.4-1.9-4.5-8-3.1-16.5m-4.2 41.2c2.2-2.7 2.3-5.7 1.1-8.7q-2-4.4-6.8-4.5H16V125h3v-9.8h4.7q1 0 1.4.7l6 9.3q.2.4.6.5h3.9l-7.1-10.8q3.2-.3 5.1-2.6m-14.6-.2v-9.9h1.1q3.5-.1 7 .1c2.7.1 4.6 2.2 4.6 4.9s-2.2 4.8-4.9 4.9zm38.7 1.3c-1.6-7-8-8.8-12.9-6.6q-5.6 2.8-5.6 9.1-.3 4.8 3.2 8c2.7 2.4 6 2.7 9.4 2.1a9 9 0 0 0 4.9-2.7l-1.5-2c-2.8 2.4-5.9 3.2-9.3 1.6-2.2-1.1-3.3-3.8-3.5-5.8h15.5v-1.3q.1-1.4-.2-2.4M42.6 115c-.3-3 2.7-6.2 6-6.2 3.8-.1 6.2 2.2 6.3 6.2zm30.7-8.7q-2.3-.5-4.6-.3a10 10 0 0 0-6.2 3.1l1.5 2.2.6-.5a7 7 0 0 1 5.8-2.1c1.8.1 3.5.7 4 2.5q.4 2.1.4 4.4-.4 0-.5-.2a9 9 0 0 0-8-1.7 6 6 0 0 0-4.6 5.5q-.2 4.8 3.9 6.5a9 9 0 0 0 5.4.3c1.4-.3 2-1.1 4-2.2v1.3h2.8v-13.5q-.2-4.4-4.5-5.3m1.4 12.6v.9c0 2.1-.5 2.8-2.5 3.6q-2.1.9-4.4.2a4 4 0 0 1-2.9-3.7c-.1-1.7 1-3.4 2.7-3.9q3.5-1.1 6.3 1.1 1 .7.8 1.8m15.6-9.9q4-1.3 6.8 1.9l.3.2 2.1-1.9-.6-.8c-2.9-3.1-8.6-3.5-12.1-1-4.9 3.6-4.8 10.6-2.4 14.3a9 9 0 0 0 9.5 4.2 8 8 0 0 0 5.7-3.3l-2.1-1.9-.4.5a6 6 0 0 1-9.6-.5 8 8 0 0 1-1.3-6.3 6 6 0 0 1 4.1-5.4m20.8 13.6-.3.2q-1.2.9-2.5.4c-.9-.4-1-1.2-1.1-2v-11.4l.1-.8h3.8v-3h-4v-5h-3v5.4h-2.6q-.4 0-.5.4v2.2h3.2v12.8q-.1 2.5 1.8 3.8c1.5.9 4.4.7 5.7-.4q.3-.3.3-.6z"/></g></svg>